<svg width="96" height="96" viewBox="0 0 96 96" fill="none" xmlns="http://www.w3.org/2000/svg">
  <rect x="12" y="12" width="72" height="72" rx="18" fill="#FFFFFF" stroke="#1D4ED8" stroke-width="2"/>
  <path d="M48 26c-10.5 0-19 7.4-19 16.6 0 5.8 3.5 10.9 8.9 13.8-.4 1.4-.9 2.9-1.7 4.3-.6 1.1.3 2.4 1.6 2.3 3.9-.2 7.1-1.5 9.3-3.2.3 0 .6 0 1 0 10.5 0 19-7.4 19-16.6S58.5 26 48 26Z" stroke="#0F172A" stroke-width="2" fill="#FFFFFF"/>
  <path d="M36.8 39.6c0-3.2 2.6-5.8 5.8-5.8" stroke="#1D4ED8" stroke-width="2" stroke-linecap="round"/>
  <path d="M59.2 39.6c0-3.2-2.6-5.8-5.8-5.8" stroke="#1D4ED8" stroke-width="2" stroke-linecap="round"/>
  <path d="M34 48c3.8 2.6 9.3 4.2 14 4.2S58.2 50.6 62 48" stroke="#0F172A" stroke-opacity="0.55" stroke-width="2" stroke-linecap="round"/>
  <path d="M40 60.5c2.1 1.1 4.9 1.8 8 1.8s5.9-.7 8-1.8" stroke="#0F172A" stroke-opacity="0.55" stroke-width="2" stroke-linecap="round"/>
</svg>
